<svg xmlns="http://www.w3.org/2000/svg" width="266" height="226" viewBox="0 0 266 226" version="1.1"><path d="M 121 27.693 C 93.647 32.291, 68.627 51.272, 57.073 76.191 C 50.834 89.647, 49.508 96.247, 49.578 113.500 C 49.632 126.837, 49.937 129.476, 52.331 137.307 C 57.251 153.397, 63.990 164.090, 76.764 176.079 C 92.319 190.676, 110.037 197.935, 132 198.708 C 138.875 198.950, 146.204 198.777, 148.288 198.324 C 150.855 197.765, 146.990 197.496, 136.288 197.488 C 118.371 197.475, 110.608 195.849, 97.908 189.454 C 84.734 182.819, 77.648 177.136, 68.811 166.114 C 31.217 119.230, 53.330 49.442, 111.500 31.386 C 119.697 28.842, 121.838 28.596, 135.500 28.628 C 149.096 28.660, 151.296 28.921, 159 31.420 C 187.139 40.546, 206.607 59.515, 216.041 87 C 219.148 96.051, 220.083 96.009, 217.389 86.939 C 213.045 72.311, 202.014 56.196, 189.396 46.045 C 173.354 33.140, 155.438 26.898, 135.122 27.136 C 128.730 27.211, 122.375 27.461, 121 27.693 M 131.750 32.723 C 133.537 32.945, 136.463 32.945, 138.250 32.723 C 140.037 32.502, 138.575 32.320, 135 32.320 C 131.425 32.320, 129.963 32.502, 131.750 32.723 M 146.750 33.662 C 147.438 33.940, 148.563 33.940, 149.250 33.662 C 149.938 33.385, 149.375 33.158, 148 33.158 C 146.625 33.158, 146.063 33.385, 146.750 33.662 M 152.813 34.683 C 153.534 34.972, 154.397 34.936, 154.729 34.604 C 155.061 34.272, 154.471 34.036, 153.417 34.079 C 152.252 34.127, 152.015 34.364, 152.813 34.683 M 111.813 35.683 C 112.534 35.972, 113.397 35.936, 113.729 35.604 C 114.061 35.272, 113.471 35.036, 112.417 35.079 C 111.252 35.127, 111.015 35.364, 111.813 35.683 M 165.907 38.981 C 169.431 40.652, 172.506 41.828, 172.740 41.593 C 173.219 41.115, 165.439 37.528, 161.839 36.567 C 160.553 36.224, 162.383 37.310, 165.907 38.981 M 102.500 38.945 C 100.300 39.986, 98.950 40.841, 99.500 40.845 C 100.864 40.854, 108.755 37.161, 107.500 37.100 C 106.950 37.074, 104.700 37.904, 102.500 38.945 M 89.861 46.056 C 87.624 48.005, 87.615 48.057, 89.694 47.051 C 90.901 46.467, 92.165 45.542, 92.503 44.995 C 93.486 43.404, 92.409 43.837, 89.861 46.056 M 109 45.691 C 106.131 47.174, 105.446 48.140, 105.201 51.051 C 104.743 56.507, 107.620 58.561, 115.311 58.268 C 119.442 58.110, 122.161 58.530, 123.750 59.572 C 126.710 61.511, 130 66.837, 129.324 68.597 C 128.869 69.784, 117.073 77, 115.588 77 C 114.573 77, 114.949 73.184, 115.998 72.833 C 116.562 72.645, 116.062 70.612, 114.851 68.163 L 112.705 63.826 108.895 68.163 C 104.955 72.649, 104.285 74, 106 74 C 107.697 74, 107.106 76.594, 104.969 78.528 C 103.175 80.151, 102.765 80.193, 101.457 78.886 C 100.643 78.071, 99.550 75.917, 99.028 74.099 C 98.194 71.189, 98.325 70.728, 100.121 70.258 C 101.684 69.849, 101.997 69.231, 101.460 67.612 C 101.074 66.451, 100.270 62.688, 99.674 59.250 C 99.077 55.813, 98.292 53, 97.930 53 C 97.568 53, 95.996 54.841, 94.436 57.092 C 92.877 59.342, 90.003 62.515, 88.050 64.142 C 84.711 66.926, 84.609 67.183, 86.329 68.469 C 88.783 70.303, 87.404 72.740, 82.075 75.988 C 77.701 78.654, 77.297 80.301, 80.887 80.827 C 84.610 81.373, 82.928 84.237, 76.737 87.893 C 70.669 91.476, 70.373 93.124, 75.563 94.426 C 79.068 95.306, 77.461 97.874, 70.781 102.065 C 67.877 103.888, 65.275 105.558, 65 105.776 C 64.091 106.497, 69.185 110, 71.142 110 C 74.116 110, 74.500 112.792, 72.182 117.562 C 70.244 121.552, 70.181 122.284, 71.423 126.410 C 73.240 132.447, 80.223 145.273, 85.256 151.816 C 95.105 164.621, 111.914 177.122, 127.214 183.022 L 134.945 186.004 141.289 183.616 C 167.095 173.902, 189.434 152.098, 198.020 128.244 L 200.272 121.989 197.970 117.649 C 195.502 112.998, 195.807 110, 198.746 110 C 200.683 110, 205 107.357, 205 106.171 C 205 105.777, 203.454 104.622, 201.564 103.604 C 199.674 102.587, 196.716 100.374, 194.991 98.687 L 191.854 95.620 195.104 94.060 C 199.485 91.958, 199.664 90.643, 195.765 89.226 C 192.305 87.968, 187 83.570, 187 81.960 C 187 81.432, 187.873 81, 188.941 81 C 191.715 81, 192.711 78.833, 190.521 77.562 C 187.508 75.813, 182 70.858, 182 69.896 C 182 69.403, 182.675 69, 183.500 69 C 185.861 69, 185.253 66.396, 182.466 64.569 C 181.072 63.656, 178.329 60.679, 176.372 57.954 C 174.414 55.229, 172.468 53, 172.046 53 C 171.625 53, 171.026 55.463, 170.715 58.474 C 170.404 61.485, 169.837 64.455, 169.454 65.074 C 169.015 65.785, 166.690 64.205, 163.130 60.773 C 154.273 52.238, 151.250 50.129, 145.465 48.447 C 140.543 47.016, 139.765 47.018, 136.713 48.466 C 133.513 49.984, 133.112 49.940, 127.759 47.490 C 120.139 44.001, 113.501 43.365, 109 45.691 M 178.796 45.715 C 196.153 59.213, 205.032 70.692, 211.118 87.500 C 212.113 90.250, 212.944 91.760, 212.964 90.855 C 213.028 87.916, 206.878 74.671, 202.203 67.682 C 197.265 60.300, 184.557 47.783, 179.585 45.405 C 176.538 43.948, 176.528 43.951, 178.796 45.715 M 83.872 50.750 C 82.629 52.336, 82.664 52.371, 84.250 51.128 C 85.916 49.821, 86.445 49, 85.622 49 C 85.415 49, 84.627 49.788, 83.872 50.750 M 111.199 50.260 C 109.291 52.559, 112.049 54.269, 116.359 53.460 C 121.072 52.576, 125.993 54.349, 129.702 58.269 C 133.618 62.407, 135 65.148, 135 68.779 C 135 72.321, 133.721 73.471, 123.522 79.098 C 112.582 85.134, 100.386 97.170, 96.164 106.096 C 92.108 114.672, 90.611 121.931, 91.324 129.564 C 91.930 136.056, 96.189 148.082, 98.586 150.071 C 99.776 151.059, 100 150.362, 100 145.672 C 100 131.049, 106.067 117.808, 116.170 110.381 C 124.492 104.263, 130.390 102.836, 148.500 102.560 C 166.720 102.283, 171.591 101.081, 176.970 95.531 C 179.510 92.910, 180.114 91.589, 179.637 89.691 C 179.299 88.343, 178.072 86.991, 176.910 86.687 C 175.749 86.383, 175.071 85.695, 175.403 85.158 C 175.735 84.620, 175.727 83.453, 175.386 82.565 C 174.906 81.314, 174.454 81.208, 173.383 82.097 C 172.622 82.728, 172 83.891, 172 84.681 C 172 85.472, 171.550 85.840, 171 85.500 C 169.842 84.784, 169.634 81.016, 170.750 80.967 C 171.162 80.948, 172.565 80.046, 173.868 78.961 C 176.753 76.557, 175.771 74.925, 169.567 71.816 C 167.330 70.695, 162.413 66.661, 158.640 62.853 C 154.867 59.044, 150.047 55.045, 147.930 53.964 C 143.260 51.582, 138 51.336, 138 53.500 C 138 54.449, 138.955 55, 140.599 55 C 145.016 55, 149.900 58.022, 152.483 62.354 C 153.831 64.615, 154.594 66.806, 154.177 67.223 C 152.690 68.710, 147.104 66.115, 139.859 60.573 C 127.455 51.085, 114.410 46.391, 111.199 50.260 M 77.924 55.750 L 75.500 58.500 78.250 56.076 C 80.820 53.810, 81.459 53, 80.674 53 C 80.495 53, 79.258 54.237, 77.924 55.750 M 68.807 66.750 C 66.899 68.972, 65.737 71, 66.373 71 C 66.643 71, 67.825 69.650, 69 68 C 71.330 64.728, 71.210 63.952, 68.807 66.750 M 148.750 75.572 C 145.682 77.236, 145.360 78.224, 147.348 79.874 C 148.377 80.728, 149.125 80.520, 150.503 78.996 C 152.659 76.614, 156.225 76.250, 155.362 78.500 C 155.042 79.332, 155.333 80, 156.015 80 C 156.966 80, 156.955 80.350, 155.965 81.542 C 153.764 84.194, 156.146 85.336, 160.905 83.910 C 163.188 83.226, 164.931 82.342, 164.778 81.944 C 164.625 81.547, 162.545 79.597, 160.155 77.611 C 155.448 73.698, 153.008 73.262, 148.750 75.572 M 62.162 77.543 C 60.487 81.220, 60.807 82.005, 62.618 78.662 C 63.464 77.100, 63.969 75.636, 63.741 75.407 C 63.512 75.179, 62.802 76.140, 62.162 77.543 M 59.624 83.539 C 58.659 86.053, 58.943 86.702, 60.122 84.675 C 60.706 83.671, 60.973 82.639, 60.715 82.382 C 60.458 82.124, 59.966 82.645, 59.624 83.539 M 138.441 86.468 C 136.806 87.705, 136.757 87.941, 138.131 87.968 C 139.029 87.986, 140.964 89.575, 142.433 91.501 C 143.902 93.427, 146.408 95.677, 148.002 96.501 C 151.608 98.366, 161.461 98.385, 165.500 96.536 C 168.487 95.169, 168.475 95.162, 163 95.076 C 153.156 94.920, 145.183 91.571, 146.499 88.143 C 147.665 85.104, 141.844 83.894, 138.441 86.468 M 57.459 89.067 C 57.096 89.653, 57.014 90.348, 57.276 90.610 C 57.538 90.872, 58.019 90.392, 58.345 89.543 C 59.021 87.781, 58.445 87.471, 57.459 89.067 M 213.735 97.500 C 215.085 106.321, 214.496 124.980, 212.646 132 C 208.618 147.283, 200.954 160.084, 189.187 171.185 C 177.281 182.416, 165.578 188.296, 148.790 191.480 C 130.457 194.958, 111.620 191.587, 94.722 181.803 C 81.888 174.373, 69.338 160.657, 62.988 147.123 C 61.153 143.213, 59.479 140.188, 59.267 140.399 C 58.610 141.056, 64.656 153.639, 67.879 158.324 C 78.536 173.813, 94.337 185.294, 113 191.107 C 119.383 193.096, 122.660 193.447, 135 193.470 C 151.996 193.501, 156.101 192.536, 172 184.766 C 181.304 180.219, 183.582 178.544, 192 170.066 C 205.350 156.619, 211.116 146.137, 214.558 129.058 C 216.439 119.722, 216.165 99.602, 214.094 95 C 213.172 92.951, 213.107 93.401, 213.735 97.500 M 55.299 98.632 C 53.898 103.661, 54.640 126.016, 56.389 131.500 C 57.267 134.250, 57.774 135.150, 57.517 133.500 C 55.208 118.681, 54.759 110.996, 55.794 104.021 C 56.939 96.306, 56.693 93.626, 55.299 98.632 M 219.754 109.500 C 220.216 126.522, 220.764 128.649, 220.784 113.500 C 220.793 106.900, 220.486 100.375, 220.101 99 C 219.716 97.625, 219.560 102.350, 219.754 109.500 M 101.611 107.785 C 99.569 111.734, 98.644 117.542, 99.745 119.509 C 100.536 120.922, 101.230 120.419, 104.208 116.274 C 110.939 106.904, 111.236 105, 105.967 105 C 103.789 105, 102.687 105.705, 101.611 107.785 M 152.695 112.093 C 145.766 113.106, 141.392 115.940, 140.502 119.991 C 139.005 126.809, 143.736 130.617, 152.572 129.705 C 160.035 128.935, 168 124.573, 168 121.257 C 168 120.162, 167.117 119.965, 164.250 120.423 C 162.188 120.752, 159.837 120.590, 159.026 120.063 C 157.763 119.242, 157.841 118.776, 159.574 116.803 C 164.398 111.306, 164.499 110.989, 161.372 111.122 C 159.793 111.189, 155.888 111.626, 152.695 112.093 M 126.199 128 C 122.377 135.981, 123.644 148.478, 129.044 156.062 C 135.126 164.603, 148.645 167.149, 158.640 161.637 C 161.467 160.078, 165.967 156.869, 168.640 154.505 L 173.500 150.209 171.129 147.661 C 167.457 143.715, 163.271 142.247, 153.500 141.477 C 148.550 141.087, 142.718 140.165, 140.539 139.428 C 138.361 138.691, 136.415 138.252, 136.215 138.451 C 135.720 138.947, 138.897 145.107, 140.723 147.192 C 143.399 150.247, 141.660 151.246, 137.981 148.767 C 132.954 145.381, 129.918 139.224, 129.069 130.691 L 128.354 123.500 126.199 128 M 219.158 128 C 219.158 129.375, 219.385 129.938, 219.662 129.250 C 219.940 128.563, 219.940 127.438, 219.662 126.750 C 219.385 126.063, 219.158 126.625, 219.158 128 M 218.079 132.583 C 218.127 133.748, 218.364 133.985, 218.683 133.188 C 218.972 132.466, 218.936 131.603, 218.604 131.271 C 218.272 130.939, 218.036 131.529, 218.079 132.583 M 217.079 136.583 C 217.127 137.748, 217.364 137.985, 217.683 137.188 C 217.972 136.466, 217.936 135.603, 217.604 135.271 C 217.272 134.939, 217.036 135.529, 217.079 136.583 M 215.479 141.500 C 214.508 145.300, 209.619 155.145, 205.796 161 C 203.098 165.133, 203.071 165.255, 205.469 162.500 C 208.939 158.513, 217.371 141.578, 216.742 139.857 C 216.461 139.087, 215.915 139.798, 215.479 141.500 M 178.158 165 C 178.158 166.375, 178.385 166.938, 178.662 166.250 C 178.940 165.563, 178.940 164.438, 178.662 163.750 C 178.385 163.063, 178.158 163.625, 178.158 165 M 199.924 168.750 L 197.500 171.500 200.250 169.076 C 202.820 166.810, 203.459 166, 202.674 166 C 202.495 166, 201.258 167.238, 199.924 168.750 M 192.924 175.599 C 191.591 177.028, 187.912 180.018, 184.750 182.244 C 178.840 186.402, 177.234 188.049, 181.298 185.782 C 185.131 183.644, 192.583 177.654, 194.391 175.257 C 196.682 172.220, 195.908 172.401, 192.924 175.599 M 172 190 C 168.975 191.598, 166.852 192.927, 167.283 192.953 C 168.346 193.017, 178 188.090, 178 187.483 C 178 186.815, 178.139 186.757, 172 190 M 158 195.066 C 154.451 196.272, 153.729 196.725, 155.964 196.341 C 160.024 195.645, 167.191 193.128, 165 193.169 C 164.175 193.184, 161.025 194.037, 158 195.066" stroke="none" fill="#272a42" fill-rule="evenodd"/></svg>
